<mxfile host="65bd71144e">
    <diagram id="RaTTPVC0k8meCuHwdyOm" name="第 1 页">
        <mxGraphModel dx="546" dy="439" grid="1" gridSize="10" guides="1" tooltips="1" connect="1" arrows="1" fold="1" page="1" pageScale="1" pageWidth="827" pageHeight="1169" background="none" math="0" shadow="0">
            <root>
                <mxCell id="0"/>
                <mxCell id="1" parent="0"/>
                <mxCell id="390" value="1" style="whiteSpace=wrap;html=1;aspect=fixed;fillColor=#76608a;fontColor=#ffffff;strokeColor=default;" vertex="1" parent="1">
                    <mxGeometry x="80" y="80" width="40" height="40" as="geometry"/>
                </mxCell>
                <mxCell id="398" value="2" style="whiteSpace=wrap;html=1;aspect=fixed;fillColor=#76608a;fontColor=#ffffff;strokeColor=default;" vertex="1" parent="1">
                    <mxGeometry x="120" y="80" width="40" height="40" as="geometry"/>
                </mxCell>
                <mxCell id="399" value="3" style="whiteSpace=wrap;html=1;aspect=fixed;fillColor=#76608a;fontColor=#ffffff;strokeColor=default;" vertex="1" parent="1">
                    <mxGeometry x="160" y="80" width="40" height="40" as="geometry"/>
                </mxCell>
                <mxCell id="400" value="p(x)" style="whiteSpace=wrap;html=1;aspect=fixed;" vertex="1" parent="1">
                    <mxGeometry x="80" y="120" width="40" height="40" as="geometry"/>
                </mxCell>
                <mxCell id="401" value="x" style="whiteSpace=wrap;html=1;aspect=fixed;" vertex="1" parent="1">
                    <mxGeometry x="120" y="120" width="40" height="40" as="geometry"/>
                </mxCell>
                <mxCell id="402" value="6" style="whiteSpace=wrap;html=1;aspect=fixed;fillColor=#60a917;fontColor=#ffffff;strokeColor=default;" vertex="1" parent="1">
                    <mxGeometry x="160" y="120" width="40" height="40" as="geometry"/>
                </mxCell>
                <mxCell id="403" value="7" style="whiteSpace=wrap;html=1;aspect=fixed;fillColor=#76608a;fontColor=#ffffff;strokeColor=default;" vertex="1" parent="1">
                    <mxGeometry x="80" y="160" width="40" height="40" as="geometry"/>
                </mxCell>
                <mxCell id="404" value="8" style="whiteSpace=wrap;html=1;aspect=fixed;fillColor=#76608a;fontColor=#ffffff;strokeColor=default;" vertex="1" parent="1">
                    <mxGeometry x="120" y="160" width="40" height="40" as="geometry"/>
                </mxCell>
                <mxCell id="405" value="9" style="whiteSpace=wrap;html=1;aspect=fixed;fillColor=#76608a;fontColor=#ffffff;strokeColor=default;" vertex="1" parent="1">
                    <mxGeometry x="160" y="160" width="40" height="40" as="geometry"/>
                </mxCell>
                <mxCell id="406" value="" style="endArrow=classic;html=1;" edge="1" parent="1">
                    <mxGeometry width="50" height="50" relative="1" as="geometry">
                        <mxPoint x="112" y="141" as="sourcePoint"/>
                        <mxPoint x="131" y="141" as="targetPoint"/>
                    </mxGeometry>
                </mxCell>
                <mxCell id="407" value="1" style="whiteSpace=wrap;html=1;aspect=fixed;" vertex="1" parent="1">
                    <mxGeometry x="320" y="80" width="40" height="40" as="geometry"/>
                </mxCell>
                <mxCell id="408" value="2" style="whiteSpace=wrap;html=1;aspect=fixed;fillColor=#a20025;fontColor=#ffffff;strokeColor=default;" vertex="1" parent="1">
                    <mxGeometry x="360" y="80" width="40" height="40" as="geometry"/>
                </mxCell>
                <mxCell id="409" value="3" style="whiteSpace=wrap;html=1;aspect=fixed;fillColor=#008a00;fontColor=#ffffff;strokeColor=default;" vertex="1" parent="1">
                    <mxGeometry x="400" y="80" width="40" height="40" as="geometry"/>
                </mxCell>
                <mxCell id="410" value="p(x)" style="whiteSpace=wrap;html=1;aspect=fixed;" vertex="1" parent="1">
                    <mxGeometry x="320" y="120" width="40" height="40" as="geometry"/>
                </mxCell>
                <mxCell id="411" value="x" style="whiteSpace=wrap;html=1;aspect=fixed;" vertex="1" parent="1">
                    <mxGeometry x="360" y="120" width="40" height="40" as="geometry"/>
                </mxCell>
                <mxCell id="412" value="6" style="whiteSpace=wrap;html=1;aspect=fixed;fillColor=#60a917;fontColor=#ffffff;strokeColor=default;" vertex="1" parent="1">
                    <mxGeometry x="400" y="120" width="40" height="40" as="geometry"/>
                </mxCell>
                <mxCell id="413" value="7" style="whiteSpace=wrap;html=1;aspect=fixed;" vertex="1" parent="1">
                    <mxGeometry x="320" y="160" width="40" height="40" as="geometry"/>
                </mxCell>
                <mxCell id="414" value="8" style="whiteSpace=wrap;html=1;aspect=fixed;" vertex="1" parent="1">
                    <mxGeometry x="360" y="160" width="40" height="40" as="geometry"/>
                </mxCell>
                <mxCell id="415" value="9" style="whiteSpace=wrap;html=1;aspect=fixed;" vertex="1" parent="1">
                    <mxGeometry x="400" y="160" width="40" height="40" as="geometry"/>
                </mxCell>
                <mxCell id="417" value="1" style="whiteSpace=wrap;html=1;aspect=fixed;fillColor=#76608a;fontColor=#ffffff;strokeColor=default;" vertex="1" parent="1">
                    <mxGeometry x="80" y="240" width="40" height="40" as="geometry"/>
                </mxCell>
                <mxCell id="418" value="2" style="whiteSpace=wrap;html=1;aspect=fixed;fillColor=#60a917;fontColor=#ffffff;strokeColor=default;" vertex="1" parent="1">
                    <mxGeometry x="120" y="240" width="40" height="40" as="geometry"/>
                </mxCell>
                <mxCell id="419" value="3" style="whiteSpace=wrap;html=1;aspect=fixed;fillColor=#60a917;fontColor=#ffffff;strokeColor=default;" vertex="1" parent="1">
                    <mxGeometry x="160" y="240" width="40" height="40" as="geometry"/>
                </mxCell>
                <mxCell id="420" value="4" style="whiteSpace=wrap;html=1;aspect=fixed;fillColor=#76608a;fontColor=#ffffff;strokeColor=default;" vertex="1" parent="1">
                    <mxGeometry x="80" y="280" width="40" height="40" as="geometry"/>
                </mxCell>
                <mxCell id="421" value="x" style="whiteSpace=wrap;html=1;aspect=fixed;" vertex="1" parent="1">
                    <mxGeometry x="120" y="280" width="40" height="40" as="geometry"/>
                </mxCell>
                <mxCell id="422" value="6" style="whiteSpace=wrap;html=1;aspect=fixed;fillColor=#60a917;fontColor=#ffffff;strokeColor=default;" vertex="1" parent="1">
                    <mxGeometry x="160" y="280" width="40" height="40" as="geometry"/>
                </mxCell>
                <mxCell id="423" value="p(x)" style="whiteSpace=wrap;html=1;aspect=fixed;" vertex="1" parent="1">
                    <mxGeometry x="80" y="320" width="40" height="40" as="geometry"/>
                </mxCell>
                <mxCell id="424" value="8" style="whiteSpace=wrap;html=1;aspect=fixed;fillColor=#76608a;fontColor=#ffffff;strokeColor=default;" vertex="1" parent="1">
                    <mxGeometry x="120" y="320" width="40" height="40" as="geometry"/>
                </mxCell>
                <mxCell id="425" value="9" style="whiteSpace=wrap;html=1;aspect=fixed;fillColor=#76608a;fontColor=#ffffff;strokeColor=default;" vertex="1" parent="1">
                    <mxGeometry x="160" y="320" width="40" height="40" as="geometry"/>
                </mxCell>
                <mxCell id="426" value="" style="endArrow=classic;html=1;" edge="1" parent="1">
                    <mxGeometry width="50" height="50" relative="1" as="geometry">
                        <mxPoint x="108" y="332" as="sourcePoint"/>
                        <mxPoint x="131" y="308" as="targetPoint"/>
                    </mxGeometry>
                </mxCell>
                <mxCell id="427" value="1" style="whiteSpace=wrap;html=1;aspect=fixed;fillColor=#008a00;fontColor=#ffffff;strokeColor=default;" vertex="1" parent="1">
                    <mxGeometry x="320" y="240" width="40" height="40" as="geometry"/>
                </mxCell>
                <mxCell id="428" value="2" style="whiteSpace=wrap;html=1;aspect=fixed;fillColor=#60a917;fontColor=#ffffff;strokeColor=default;" vertex="1" parent="1">
                    <mxGeometry x="360" y="240" width="40" height="40" as="geometry"/>
                </mxCell>
                <mxCell id="429" value="3" style="whiteSpace=wrap;html=1;aspect=fixed;fillColor=#60a917;fontColor=#ffffff;strokeColor=default;" vertex="1" parent="1">
                    <mxGeometry x="400" y="240" width="40" height="40" as="geometry"/>
                </mxCell>
                <mxCell id="430" value="4" style="whiteSpace=wrap;html=1;aspect=fixed;fillColor=#a20025;fontColor=#ffffff;strokeColor=default;" vertex="1" parent="1">
                    <mxGeometry x="320" y="280" width="40" height="40" as="geometry"/>
                </mxCell>
                <mxCell id="431" value="x" style="whiteSpace=wrap;html=1;aspect=fixed;" vertex="1" parent="1">
                    <mxGeometry x="360" y="280" width="40" height="40" as="geometry"/>
                </mxCell>
                <mxCell id="432" value="6" style="whiteSpace=wrap;html=1;aspect=fixed;fillColor=#60a917;fontColor=#ffffff;strokeColor=default;" vertex="1" parent="1">
                    <mxGeometry x="400" y="280" width="40" height="40" as="geometry"/>
                </mxCell>
                <mxCell id="433" value="p(x)" style="whiteSpace=wrap;html=1;aspect=fixed;" vertex="1" parent="1">
                    <mxGeometry x="320" y="320" width="40" height="40" as="geometry"/>
                </mxCell>
                <mxCell id="434" value="8" style="whiteSpace=wrap;html=1;aspect=fixed;fillColor=#76608a;fontColor=#ffffff;strokeColor=default;" vertex="1" parent="1">
                    <mxGeometry x="360" y="320" width="40" height="40" as="geometry"/>
                </mxCell>
                <mxCell id="435" value="9" style="whiteSpace=wrap;html=1;aspect=fixed;fillColor=#76608a;fontColor=#ffffff;strokeColor=default;" vertex="1" parent="1">
                    <mxGeometry x="400" y="320" width="40" height="40" as="geometry"/>
                </mxCell>
                <mxCell id="436" value="" style="endArrow=classic;html=1;" edge="1" parent="1">
                    <mxGeometry width="50" height="50" relative="1" as="geometry">
                        <mxPoint x="348" y="332" as="sourcePoint"/>
                        <mxPoint x="371" y="308" as="targetPoint"/>
                    </mxGeometry>
                </mxCell>
                <mxCell id="437" value="1" style="whiteSpace=wrap;html=1;aspect=fixed;fillColor=#76608a;fontColor=#ffffff;strokeColor=default;" vertex="1" parent="1">
                    <mxGeometry x="320" y="80" width="40" height="40" as="geometry"/>
                </mxCell>
                <mxCell id="438" value="p(x)" style="whiteSpace=wrap;html=1;aspect=fixed;" vertex="1" parent="1">
                    <mxGeometry x="320" y="120" width="40" height="40" as="geometry"/>
                </mxCell>
                <mxCell id="439" value="7" style="whiteSpace=wrap;html=1;aspect=fixed;fillColor=#76608a;fontColor=#ffffff;strokeColor=default;" vertex="1" parent="1">
                    <mxGeometry x="320" y="160" width="40" height="40" as="geometry"/>
                </mxCell>
                <mxCell id="440" value="8" style="whiteSpace=wrap;html=1;aspect=fixed;fillColor=#76608a;fontColor=#ffffff;strokeColor=default;" vertex="1" parent="1">
                    <mxGeometry x="360" y="160" width="40" height="40" as="geometry"/>
                </mxCell>
                <mxCell id="441" value="9" style="whiteSpace=wrap;html=1;aspect=fixed;fillColor=#76608a;fontColor=#ffffff;strokeColor=default;" vertex="1" parent="1">
                    <mxGeometry x="400" y="160" width="40" height="40" as="geometry"/>
                </mxCell>
                <mxCell id="416" value="" style="endArrow=classic;html=1;" edge="1" parent="1">
                    <mxGeometry width="50" height="50" relative="1" as="geometry">
                        <mxPoint x="352" y="141" as="sourcePoint"/>
                        <mxPoint x="371" y="141" as="targetPoint"/>
                    </mxGeometry>
                </mxCell>
            </root>
        </mxGraphModel>
    </diagram>
    <diagram id="xraLIw23NiQRgY2Dsf0D" name="JumpPoint">
        <mxGraphModel grid="1" gridSize="10" guides="1" tooltips="1" connect="1" arrows="1" page="1" fold="1" pageScale="1" pageWidth="850" pageHeight="1100" math="0" shadow="0">
            <root>
                <mxCell id="6u4lrkfQHm2KUahY1WgO-0"/>
                <mxCell id="6u4lrkfQHm2KUahY1WgO-1" parent="6u4lrkfQHm2KUahY1WgO-0"/>
                <mxCell id="6u4lrkfQHm2KUahY1WgO-2" value="" style="whiteSpace=wrap;html=1;aspect=fixed;fontColor=#FFFFFF;strokeColor=default;fillColor=default;gradientColor=none;" parent="6u4lrkfQHm2KUahY1WgO-1" vertex="1">
                    <mxGeometry x="80" y="80" width="40" height="40" as="geometry"/>
                </mxCell>
                <mxCell id="6u4lrkfQHm2KUahY1WgO-3" value="" style="whiteSpace=wrap;html=1;aspect=fixed;fontColor=#FFFFFF;strokeColor=default;fillColor=default;gradientColor=none;" parent="6u4lrkfQHm2KUahY1WgO-1" vertex="1">
                    <mxGeometry x="120" y="80" width="40" height="40" as="geometry"/>
                </mxCell>
                <mxCell id="6u4lrkfQHm2KUahY1WgO-4" value="" style="whiteSpace=wrap;html=1;aspect=fixed;fontColor=#FFFFFF;strokeColor=default;fillColor=default;gradientColor=none;" parent="6u4lrkfQHm2KUahY1WgO-1" vertex="1">
                    <mxGeometry x="160" y="80" width="40" height="40" as="geometry"/>
                </mxCell>
                <mxCell id="6u4lrkfQHm2KUahY1WgO-5" value="" style="whiteSpace=wrap;html=1;aspect=fixed;fontColor=#FFFFFF;strokeColor=default;fillColor=default;gradientColor=none;" parent="6u4lrkfQHm2KUahY1WgO-1" vertex="1">
                    <mxGeometry x="200" y="80" width="40" height="40" as="geometry"/>
                </mxCell>
                <mxCell id="6u4lrkfQHm2KUahY1WgO-6" value="" style="whiteSpace=wrap;html=1;aspect=fixed;fontColor=#FFFFFF;strokeColor=default;fillColor=default;gradientColor=none;" parent="6u4lrkfQHm2KUahY1WgO-1" vertex="1">
                    <mxGeometry x="240" y="80" width="40" height="40" as="geometry"/>
                </mxCell>
                <mxCell id="6u4lrkfQHm2KUahY1WgO-7" value="" style="whiteSpace=wrap;html=1;aspect=fixed;fontColor=#FFFFFF;strokeColor=default;fillColor=default;gradientColor=none;" parent="6u4lrkfQHm2KUahY1WgO-1" vertex="1">
                    <mxGeometry x="280" y="80" width="40" height="40" as="geometry"/>
                </mxCell>
                <mxCell id="6u4lrkfQHm2KUahY1WgO-8" value="" style="whiteSpace=wrap;html=1;aspect=fixed;fontColor=#FFFFFF;strokeColor=default;fillColor=default;gradientColor=none;" parent="6u4lrkfQHm2KUahY1WgO-1" vertex="1">
                    <mxGeometry x="320" y="80" width="40" height="40" as="geometry"/>
                </mxCell>
                <mxCell id="6u4lrkfQHm2KUahY1WgO-9" value="" style="whiteSpace=wrap;html=1;aspect=fixed;fontColor=#FFFFFF;strokeColor=default;fillColor=default;gradientColor=none;" parent="6u4lrkfQHm2KUahY1WgO-1" vertex="1">
                    <mxGeometry x="80" y="120" width="40" height="40" as="geometry"/>
                </mxCell>
                <mxCell id="6u4lrkfQHm2KUahY1WgO-10" value="" style="whiteSpace=wrap;html=1;aspect=fixed;fontColor=#FFFFFF;strokeColor=default;fillColor=default;gradientColor=none;" parent="6u4lrkfQHm2KUahY1WgO-1" vertex="1">
                    <mxGeometry x="120" y="120" width="40" height="40" as="geometry"/>
                </mxCell>
                <mxCell id="6u4lrkfQHm2KUahY1WgO-11" value="" style="whiteSpace=wrap;html=1;aspect=fixed;fontColor=#FFFFFF;strokeColor=default;fillColor=default;gradientColor=none;" parent="6u4lrkfQHm2KUahY1WgO-1" vertex="1">
                    <mxGeometry x="160" y="120" width="40" height="40" as="geometry"/>
                </mxCell>
                <mxCell id="6u4lrkfQHm2KUahY1WgO-12" value="" style="whiteSpace=wrap;html=1;aspect=fixed;fontColor=#FFFFFF;strokeColor=default;fillColor=default;gradientColor=none;" parent="6u4lrkfQHm2KUahY1WgO-1" vertex="1">
                    <mxGeometry x="200" y="120" width="40" height="40" as="geometry"/>
                </mxCell>
                <mxCell id="6u4lrkfQHm2KUahY1WgO-13" value="" style="whiteSpace=wrap;html=1;aspect=fixed;fontColor=#FFFFFF;strokeColor=default;fillColor=default;gradientColor=none;" parent="6u4lrkfQHm2KUahY1WgO-1" vertex="1">
                    <mxGeometry x="240" y="120" width="40" height="40" as="geometry"/>
                </mxCell>
                <mxCell id="6u4lrkfQHm2KUahY1WgO-14" value="" style="whiteSpace=wrap;html=1;aspect=fixed;fontColor=#FFFFFF;strokeColor=default;fillColor=default;gradientColor=none;" parent="6u4lrkfQHm2KUahY1WgO-1" vertex="1">
                    <mxGeometry x="280" y="120" width="40" height="40" as="geometry"/>
                </mxCell>
                <mxCell id="6u4lrkfQHm2KUahY1WgO-15" value="" style="whiteSpace=wrap;html=1;aspect=fixed;fontColor=#FFFFFF;strokeColor=default;fillColor=default;gradientColor=none;" parent="6u4lrkfQHm2KUahY1WgO-1" vertex="1">
                    <mxGeometry x="320" y="120" width="40" height="40" as="geometry"/>
                </mxCell>
                <mxCell id="6u4lrkfQHm2KUahY1WgO-16" value="" style="whiteSpace=wrap;html=1;aspect=fixed;fontColor=#FFFFFF;strokeColor=default;fillColor=#a20025;" parent="6u4lrkfQHm2KUahY1WgO-1" vertex="1">
                    <mxGeometry x="80" y="160" width="40" height="40" as="geometry"/>
                </mxCell>
                <mxCell id="6u4lrkfQHm2KUahY1WgO-17" value="" style="whiteSpace=wrap;html=1;aspect=fixed;fontColor=#FFFFFF;strokeColor=default;fillColor=#76608a;" parent="6u4lrkfQHm2KUahY1WgO-1" vertex="1">
                    <mxGeometry x="120" y="160" width="40" height="40" as="geometry"/>
                </mxCell>
                <mxCell id="6u4lrkfQHm2KUahY1WgO-18" value="" style="whiteSpace=wrap;html=1;aspect=fixed;fontColor=#FFFFFF;strokeColor=default;fillColor=#76608a;" parent="6u4lrkfQHm2KUahY1WgO-1" vertex="1">
                    <mxGeometry x="160" y="160" width="40" height="40" as="geometry"/>
                </mxCell>
                <mxCell id="6u4lrkfQHm2KUahY1WgO-19" value="" style="whiteSpace=wrap;html=1;aspect=fixed;fontColor=#FFFFFF;strokeColor=default;fillColor=default;gradientColor=none;" parent="6u4lrkfQHm2KUahY1WgO-1" vertex="1">
                    <mxGeometry x="200" y="160" width="40" height="40" as="geometry"/>
                </mxCell>
                <mxCell id="6u4lrkfQHm2KUahY1WgO-20" value="" style="whiteSpace=wrap;html=1;aspect=fixed;fontColor=#FFFFFF;strokeColor=default;fillColor=default;gradientColor=none;" parent="6u4lrkfQHm2KUahY1WgO-1" vertex="1">
                    <mxGeometry x="240" y="160" width="40" height="40" as="geometry"/>
                </mxCell>
                <mxCell id="6u4lrkfQHm2KUahY1WgO-21" value="" style="whiteSpace=wrap;html=1;aspect=fixed;fontColor=#FFFFFF;strokeColor=default;fillColor=#a20025;" parent="6u4lrkfQHm2KUahY1WgO-1" vertex="1">
                    <mxGeometry x="280" y="160" width="40" height="40" as="geometry"/>
                </mxCell>
                <mxCell id="6u4lrkfQHm2KUahY1WgO-22" value="z" style="whiteSpace=wrap;html=1;aspect=fixed;strokeColor=default;fillColor=#1ba1e2;fontColor=#ffffff;" parent="6u4lrkfQHm2KUahY1WgO-1" vertex="1">
                    <mxGeometry x="320" y="160" width="40" height="40" as="geometry"/>
                </mxCell>
                <mxCell id="6u4lrkfQHm2KUahY1WgO-23" value="&lt;font&gt;p(x)&lt;/font&gt;" style="whiteSpace=wrap;html=1;aspect=fixed;fontColor=#FFFFFF;strokeColor=default;fillColor=default;gradientColor=none;" parent="6u4lrkfQHm2KUahY1WgO-1" vertex="1">
                    <mxGeometry x="80" y="200" width="40" height="40" as="geometry"/>
                </mxCell>
                <mxCell id="6u4lrkfQHm2KUahY1WgO-24" value="&lt;font&gt;x&lt;/font&gt;" style="whiteSpace=wrap;html=1;aspect=fixed;fontColor=#FFFFFF;strokeColor=default;fillColor=default;gradientColor=none;" parent="6u4lrkfQHm2KUahY1WgO-1" vertex="1">
                    <mxGeometry x="120" y="200" width="40" height="40" as="geometry"/>
                </mxCell>
                <mxCell id="6u4lrkfQHm2KUahY1WgO-25" value="" style="whiteSpace=wrap;html=1;aspect=fixed;fontColor=#FFFFFF;strokeColor=default;fillColor=default;gradientColor=none;" parent="6u4lrkfQHm2KUahY1WgO-1" vertex="1">
                    <mxGeometry x="160" y="200" width="40" height="40" as="geometry"/>
                </mxCell>
                <mxCell id="6u4lrkfQHm2KUahY1WgO-26" value="" style="whiteSpace=wrap;html=1;aspect=fixed;fontColor=#FFFFFF;strokeColor=default;fillColor=default;gradientColor=none;" parent="6u4lrkfQHm2KUahY1WgO-1" vertex="1">
                    <mxGeometry x="200" y="200" width="40" height="40" as="geometry"/>
                </mxCell>
                <mxCell id="6u4lrkfQHm2KUahY1WgO-27" value="" style="whiteSpace=wrap;html=1;aspect=fixed;fontColor=#FFFFFF;strokeColor=default;fillColor=default;gradientColor=none;" parent="6u4lrkfQHm2KUahY1WgO-1" vertex="1">
                    <mxGeometry x="240" y="200" width="40" height="40" as="geometry"/>
                </mxCell>
                <mxCell id="6u4lrkfQHm2KUahY1WgO-28" value="y" style="whiteSpace=wrap;html=1;aspect=fixed;fontColor=#ffffff;strokeColor=default;fillColor=#008a00;" parent="6u4lrkfQHm2KUahY1WgO-1" vertex="1">
                    <mxGeometry x="280" y="200" width="40" height="40" as="geometry"/>
                </mxCell>
                <mxCell id="6u4lrkfQHm2KUahY1WgO-29" value="" style="whiteSpace=wrap;html=1;aspect=fixed;fontColor=#FFFFFF;strokeColor=default;fillColor=default;gradientColor=none;" parent="6u4lrkfQHm2KUahY1WgO-1" vertex="1">
                    <mxGeometry x="320" y="200" width="40" height="40" as="geometry"/>
                </mxCell>
                <mxCell id="6u4lrkfQHm2KUahY1WgO-30" value="" style="whiteSpace=wrap;html=1;aspect=fixed;fontColor=#FFFFFF;strokeColor=default;fillColor=#a20025;" parent="6u4lrkfQHm2KUahY1WgO-1" vertex="1">
                    <mxGeometry x="80" y="240" width="40" height="40" as="geometry"/>
                </mxCell>
                <mxCell id="6u4lrkfQHm2KUahY1WgO-31" value="" style="whiteSpace=wrap;html=1;aspect=fixed;fontColor=#FFFFFF;strokeColor=default;fillColor=#76608a;" parent="6u4lrkfQHm2KUahY1WgO-1" vertex="1">
                    <mxGeometry x="120" y="240" width="40" height="40" as="geometry"/>
                </mxCell>
                <mxCell id="6u4lrkfQHm2KUahY1WgO-32" value="" style="whiteSpace=wrap;html=1;aspect=fixed;fontColor=#FFFFFF;strokeColor=default;fillColor=#76608a;" parent="6u4lrkfQHm2KUahY1WgO-1" vertex="1">
                    <mxGeometry x="160" y="240" width="40" height="40" as="geometry"/>
                </mxCell>
                <mxCell id="6u4lrkfQHm2KUahY1WgO-33" value="" style="whiteSpace=wrap;html=1;aspect=fixed;fontColor=#FFFFFF;strokeColor=default;fillColor=default;gradientColor=none;" parent="6u4lrkfQHm2KUahY1WgO-1" vertex="1">
                    <mxGeometry x="200" y="240" width="40" height="40" as="geometry"/>
                </mxCell>
                <mxCell id="6u4lrkfQHm2KUahY1WgO-34" value="" style="whiteSpace=wrap;html=1;aspect=fixed;fontColor=#FFFFFF;strokeColor=default;fillColor=default;gradientColor=none;" parent="6u4lrkfQHm2KUahY1WgO-1" vertex="1">
                    <mxGeometry x="240" y="240" width="40" height="40" as="geometry"/>
                </mxCell>
                <mxCell id="6u4lrkfQHm2KUahY1WgO-35" value="" style="whiteSpace=wrap;html=1;aspect=fixed;fontColor=#FFFFFF;strokeColor=default;fillColor=default;gradientColor=none;" parent="6u4lrkfQHm2KUahY1WgO-1" vertex="1">
                    <mxGeometry x="280" y="240" width="40" height="40" as="geometry"/>
                </mxCell>
                <mxCell id="6u4lrkfQHm2KUahY1WgO-36" value="" style="whiteSpace=wrap;html=1;aspect=fixed;fontColor=#FFFFFF;strokeColor=default;fillColor=default;gradientColor=none;" parent="6u4lrkfQHm2KUahY1WgO-1" vertex="1">
                    <mxGeometry x="320" y="240" width="40" height="40" as="geometry"/>
                </mxCell>
                <mxCell id="taWCgaEMLDeXWHCtuFKe-0" value="" style="endArrow=classic;html=1;fontColor=#FFFFFF;" parent="6u4lrkfQHm2KUahY1WgO-1" edge="1">
                    <mxGeometry width="50" height="50" relative="1" as="geometry">
                        <mxPoint x="112" y="219.88" as="sourcePoint"/>
                        <mxPoint x="131.0000000000001" y="219.88" as="targetPoint"/>
                    </mxGeometry>
                </mxCell>
                <mxCell id="NgB0cGoync-LbmQ5JRYv-0" value="" style="endArrow=classic;html=1;fontColor=#FFFFFF;" parent="6u4lrkfQHm2KUahY1WgO-1" edge="1">
                    <mxGeometry width="50" height="50" relative="1" as="geometry">
                        <mxPoint x="111" y="210" as="sourcePoint"/>
                        <mxPoint x="134" y="186.0000000000001" as="targetPoint"/>
                        <Array as="points">
                            <mxPoint x="123" y="198"/>
                        </Array>
                    </mxGeometry>
                </mxCell>
                <mxCell id="NgB0cGoync-LbmQ5JRYv-2" value="" style="endArrow=classic;html=1;fontColor=#FFFFFF;" parent="6u4lrkfQHm2KUahY1WgO-1" edge="1">
                    <mxGeometry width="50" height="50" relative="1" as="geometry">
                        <mxPoint x="112" y="233" as="sourcePoint"/>
                        <mxPoint x="133" y="253" as="targetPoint"/>
                    </mxGeometry>
                </mxCell>
                <mxCell id="NgB0cGoync-LbmQ5JRYv-3" value="" style="endArrow=classic;html=1;fontColor=#FFFFFF;" parent="6u4lrkfQHm2KUahY1WgO-1" edge="1">
                    <mxGeometry width="50" height="50" relative="1" as="geometry">
                        <mxPoint x="151" y="221" as="sourcePoint"/>
                        <mxPoint x="293" y="221" as="targetPoint"/>
                    </mxGeometry>
                </mxCell>
                <mxCell id="NgB0cGoync-LbmQ5JRYv-4" value="" style="whiteSpace=wrap;html=1;aspect=fixed;fontColor=#FFFFFF;strokeColor=default;fillColor=default;gradientColor=none;" parent="6u4lrkfQHm2KUahY1WgO-1" vertex="1">
                    <mxGeometry x="80" y="360" width="40" height="40" as="geometry"/>
                </mxCell>
                <mxCell id="NgB0cGoync-LbmQ5JRYv-5" value="" style="whiteSpace=wrap;html=1;aspect=fixed;fontColor=#FFFFFF;strokeColor=default;fillColor=default;gradientColor=none;" parent="6u4lrkfQHm2KUahY1WgO-1" vertex="1">
                    <mxGeometry x="120" y="360" width="40" height="40" as="geometry"/>
                </mxCell>
                <mxCell id="NgB0cGoync-LbmQ5JRYv-6" value="" style="whiteSpace=wrap;html=1;aspect=fixed;fontColor=#FFFFFF;strokeColor=default;fillColor=default;gradientColor=none;" parent="6u4lrkfQHm2KUahY1WgO-1" vertex="1">
                    <mxGeometry x="160" y="360" width="40" height="40" as="geometry"/>
                </mxCell>
                <mxCell id="NgB0cGoync-LbmQ5JRYv-7" value="y" style="whiteSpace=wrap;html=1;aspect=fixed;fontColor=#ffffff;strokeColor=default;fillColor=#008a00;" parent="6u4lrkfQHm2KUahY1WgO-1" vertex="1">
                    <mxGeometry x="200" y="360" width="40" height="40" as="geometry"/>
                </mxCell>
                <mxCell id="NgB0cGoync-LbmQ5JRYv-8" value="" style="whiteSpace=wrap;html=1;aspect=fixed;fontColor=#FFFFFF;strokeColor=default;fillColor=default;gradientColor=none;" parent="6u4lrkfQHm2KUahY1WgO-1" vertex="1">
                    <mxGeometry x="240" y="360" width="40" height="40" as="geometry"/>
                </mxCell>
                <mxCell id="NgB0cGoync-LbmQ5JRYv-9" value="&lt;span&gt;&lt;font color=&quot;#ffffff&quot;&gt;z&lt;/font&gt;&lt;/span&gt;" style="whiteSpace=wrap;html=1;aspect=fixed;fontColor=#ffffff;strokeColor=default;fillColor=#1ba1e2;" parent="6u4lrkfQHm2KUahY1WgO-1" vertex="1">
                    <mxGeometry x="280" y="360" width="40" height="40" as="geometry"/>
                </mxCell>
                <mxCell id="NgB0cGoync-LbmQ5JRYv-10" value="" style="whiteSpace=wrap;html=1;aspect=fixed;fontColor=#FFFFFF;strokeColor=default;fillColor=default;gradientColor=none;" parent="6u4lrkfQHm2KUahY1WgO-1" vertex="1">
                    <mxGeometry x="320" y="360" width="40" height="40" as="geometry"/>
                </mxCell>
                <mxCell id="NgB0cGoync-LbmQ5JRYv-11" value="" style="whiteSpace=wrap;html=1;aspect=fixed;fontColor=#FFFFFF;strokeColor=default;fillColor=default;gradientColor=none;" parent="6u4lrkfQHm2KUahY1WgO-1" vertex="1">
                    <mxGeometry x="80" y="400" width="40" height="40" as="geometry"/>
                </mxCell>
                <mxCell id="NgB0cGoync-LbmQ5JRYv-12" value="" style="whiteSpace=wrap;html=1;aspect=fixed;fontColor=#FFFFFF;strokeColor=default;fillColor=default;gradientColor=none;" parent="6u4lrkfQHm2KUahY1WgO-1" vertex="1">
                    <mxGeometry x="120" y="400" width="40" height="40" as="geometry"/>
                </mxCell>
                <mxCell id="NgB0cGoync-LbmQ5JRYv-13" value="" style="whiteSpace=wrap;html=1;aspect=fixed;fontColor=#FFFFFF;strokeColor=default;fillColor=default;gradientColor=none;" parent="6u4lrkfQHm2KUahY1WgO-1" vertex="1">
                    <mxGeometry x="160" y="400" width="40" height="40" as="geometry"/>
                </mxCell>
                <mxCell id="NgB0cGoync-LbmQ5JRYv-14" value="" style="whiteSpace=wrap;html=1;aspect=fixed;fontColor=#FFFFFF;strokeColor=default;fillColor=default;gradientColor=none;" parent="6u4lrkfQHm2KUahY1WgO-1" vertex="1">
                    <mxGeometry x="200" y="400" width="40" height="40" as="geometry"/>
                </mxCell>
                <mxCell id="NgB0cGoync-LbmQ5JRYv-15" value="" style="whiteSpace=wrap;html=1;aspect=fixed;fontColor=#FFFFFF;strokeColor=default;fillColor=default;gradientColor=none;" parent="6u4lrkfQHm2KUahY1WgO-1" vertex="1">
                    <mxGeometry x="240" y="400" width="40" height="40" as="geometry"/>
                </mxCell>
                <mxCell id="NgB0cGoync-LbmQ5JRYv-16" value="" style="whiteSpace=wrap;html=1;aspect=fixed;fontColor=#ffffff;strokeColor=default;fillColor=#a20025;" parent="6u4lrkfQHm2KUahY1WgO-1" vertex="1">
                    <mxGeometry x="280" y="400" width="40" height="40" as="geometry"/>
                </mxCell>
                <mxCell id="NgB0cGoync-LbmQ5JRYv-17" value="" style="whiteSpace=wrap;html=1;aspect=fixed;fontColor=#FFFFFF;strokeColor=default;fillColor=default;gradientColor=none;" parent="6u4lrkfQHm2KUahY1WgO-1" vertex="1">
                    <mxGeometry x="320" y="400" width="40" height="40" as="geometry"/>
                </mxCell>
                <mxCell id="NgB0cGoync-LbmQ5JRYv-18" value="" style="whiteSpace=wrap;html=1;aspect=fixed;" parent="6u4lrkfQHm2KUahY1WgO-1" vertex="1">
                    <mxGeometry x="80" y="440" width="40" height="40" as="geometry"/>
                </mxCell>
                <mxCell id="NgB0cGoync-LbmQ5JRYv-19" value="&lt;span style=&quot;color: rgb(255 , 255 , 255)&quot;&gt;x&lt;/span&gt;" style="whiteSpace=wrap;html=1;aspect=fixed;" parent="6u4lrkfQHm2KUahY1WgO-1" vertex="1">
                    <mxGeometry x="120" y="440" width="40" height="40" as="geometry"/>
                </mxCell>
                <mxCell id="NgB0cGoync-LbmQ5JRYv-20" value="" style="whiteSpace=wrap;html=1;aspect=fixed;" parent="6u4lrkfQHm2KUahY1WgO-1" vertex="1">
                    <mxGeometry x="160" y="440" width="40" height="40" as="geometry"/>
                </mxCell>
                <mxCell id="NgB0cGoync-LbmQ5JRYv-21" value="" style="whiteSpace=wrap;html=1;aspect=fixed;fontColor=#FFFFFF;strokeColor=default;fillColor=default;gradientColor=none;" parent="6u4lrkfQHm2KUahY1WgO-1" vertex="1">
                    <mxGeometry x="200" y="440" width="40" height="40" as="geometry"/>
                </mxCell>
                <mxCell id="NgB0cGoync-LbmQ5JRYv-22" value="" style="whiteSpace=wrap;html=1;aspect=fixed;fontColor=#FFFFFF;strokeColor=default;fillColor=default;gradientColor=none;" parent="6u4lrkfQHm2KUahY1WgO-1" vertex="1">
                    <mxGeometry x="240" y="440" width="40" height="40" as="geometry"/>
                </mxCell>
                <mxCell id="NgB0cGoync-LbmQ5JRYv-23" value="" style="whiteSpace=wrap;html=1;aspect=fixed;fontColor=#FFFFFF;strokeColor=default;fillColor=#a20025;" parent="6u4lrkfQHm2KUahY1WgO-1" vertex="1">
                    <mxGeometry x="280" y="440" width="40" height="40" as="geometry"/>
                </mxCell>
                <mxCell id="NgB0cGoync-LbmQ5JRYv-24" value="" style="whiteSpace=wrap;html=1;aspect=fixed;fontColor=#FFFFFF;strokeColor=default;fillColor=default;gradientColor=none;" parent="6u4lrkfQHm2KUahY1WgO-1" vertex="1">
                    <mxGeometry x="320" y="440" width="40" height="40" as="geometry"/>
                </mxCell>
                <mxCell id="NgB0cGoync-LbmQ5JRYv-25" value="&lt;font&gt;p(x)&lt;/font&gt;" style="whiteSpace=wrap;html=1;aspect=fixed;fontColor=#FFFFFF;strokeColor=default;fillColor=default;gradientColor=none;" parent="6u4lrkfQHm2KUahY1WgO-1" vertex="1">
                    <mxGeometry x="80" y="480" width="40" height="40" as="geometry"/>
                </mxCell>
                <mxCell id="NgB0cGoync-LbmQ5JRYv-26" value="" style="whiteSpace=wrap;html=1;aspect=fixed;fontColor=#ffffff;strokeColor=default;fillColor=#a20025;" parent="6u4lrkfQHm2KUahY1WgO-1" vertex="1">
                    <mxGeometry x="120" y="480" width="40" height="40" as="geometry"/>
                </mxCell>
                <mxCell id="NgB0cGoync-LbmQ5JRYv-27" value="w" style="whiteSpace=wrap;html=1;aspect=fixed;fontColor=#ffffff;strokeColor=default;fillColor=#008a00;" parent="6u4lrkfQHm2KUahY1WgO-1" vertex="1">
                    <mxGeometry x="160" y="480" width="40" height="40" as="geometry"/>
                </mxCell>
                <mxCell id="NgB0cGoync-LbmQ5JRYv-28" value="" style="whiteSpace=wrap;html=1;aspect=fixed;fontColor=#FFFFFF;strokeColor=default;fillColor=default;gradientColor=none;" parent="6u4lrkfQHm2KUahY1WgO-1" vertex="1">
                    <mxGeometry x="200" y="480" width="40" height="40" as="geometry"/>
                </mxCell>
                <mxCell id="NgB0cGoync-LbmQ5JRYv-29" value="" style="whiteSpace=wrap;html=1;aspect=fixed;fontColor=#FFFFFF;strokeColor=default;fillColor=default;gradientColor=none;" parent="6u4lrkfQHm2KUahY1WgO-1" vertex="1">
                    <mxGeometry x="240" y="480" width="40" height="40" as="geometry"/>
                </mxCell>
                <mxCell id="NgB0cGoync-LbmQ5JRYv-30" value="" style="whiteSpace=wrap;html=1;aspect=fixed;fontColor=#ffffff;strokeColor=default;fillColor=#a20025;" parent="6u4lrkfQHm2KUahY1WgO-1" vertex="1">
                    <mxGeometry x="280" y="480" width="40" height="40" as="geometry"/>
                </mxCell>
                <mxCell id="NgB0cGoync-LbmQ5JRYv-31" value="" style="whiteSpace=wrap;html=1;aspect=fixed;fontColor=#FFFFFF;strokeColor=default;fillColor=default;gradientColor=none;" parent="6u4lrkfQHm2KUahY1WgO-1" vertex="1">
                    <mxGeometry x="320" y="480" width="40" height="40" as="geometry"/>
                </mxCell>
                <mxCell id="NgB0cGoync-LbmQ5JRYv-32" value="" style="whiteSpace=wrap;html=1;aspect=fixed;fontColor=#FFFFFF;strokeColor=default;fillColor=#a20025;" parent="6u4lrkfQHm2KUahY1WgO-1" vertex="1">
                    <mxGeometry x="80" y="520" width="40" height="40" as="geometry"/>
                </mxCell>
                <mxCell id="NgB0cGoync-LbmQ5JRYv-33" value="" style="whiteSpace=wrap;html=1;aspect=fixed;fillColor=#a20025;fontColor=#ffffff;strokeColor=default;" parent="6u4lrkfQHm2KUahY1WgO-1" vertex="1">
                    <mxGeometry x="120" y="520" width="40" height="40" as="geometry"/>
                </mxCell>
                <mxCell id="NgB0cGoync-LbmQ5JRYv-34" value="" style="whiteSpace=wrap;html=1;aspect=fixed;" parent="6u4lrkfQHm2KUahY1WgO-1" vertex="1">
                    <mxGeometry x="160" y="520" width="40" height="40" as="geometry"/>
                </mxCell>
                <mxCell id="NgB0cGoync-LbmQ5JRYv-35" value="" style="whiteSpace=wrap;html=1;aspect=fixed;fontColor=#FFFFFF;strokeColor=default;fillColor=default;gradientColor=none;" parent="6u4lrkfQHm2KUahY1WgO-1" vertex="1">
                    <mxGeometry x="200" y="520" width="40" height="40" as="geometry"/>
                </mxCell>
                <mxCell id="NgB0cGoync-LbmQ5JRYv-36" value="" style="whiteSpace=wrap;html=1;aspect=fixed;fontColor=#FFFFFF;strokeColor=default;fillColor=default;gradientColor=none;" parent="6u4lrkfQHm2KUahY1WgO-1" vertex="1">
                    <mxGeometry x="240" y="520" width="40" height="40" as="geometry"/>
                </mxCell>
                <mxCell id="NgB0cGoync-LbmQ5JRYv-37" value="" style="whiteSpace=wrap;html=1;aspect=fixed;fontColor=#FFFFFF;strokeColor=default;fillColor=default;gradientColor=none;" parent="6u4lrkfQHm2KUahY1WgO-1" vertex="1">
                    <mxGeometry x="280" y="520" width="40" height="40" as="geometry"/>
                </mxCell>
                <mxCell id="NgB0cGoync-LbmQ5JRYv-38" value="" style="whiteSpace=wrap;html=1;aspect=fixed;fontColor=#FFFFFF;strokeColor=default;fillColor=default;gradientColor=none;" parent="6u4lrkfQHm2KUahY1WgO-1" vertex="1">
                    <mxGeometry x="320" y="520" width="40" height="40" as="geometry"/>
                </mxCell>
                <mxCell id="NgB0cGoync-LbmQ5JRYv-40" value="" style="endArrow=classic;html=1;fontColor=#FFFFFF;" parent="6u4lrkfQHm2KUahY1WgO-1" edge="1">
                    <mxGeometry width="50" height="50" relative="1" as="geometry">
                        <mxPoint x="111" y="490" as="sourcePoint"/>
                        <mxPoint x="133.9999999999999" y="466.0000000000002" as="targetPoint"/>
                        <Array as="points">
                            <mxPoint x="123" y="478"/>
                        </Array>
                    </mxGeometry>
                </mxCell>
                <mxCell id="NgB0cGoync-LbmQ5JRYv-41" value="" style="endArrow=classic;html=1;fontColor=#FFFFFF;" parent="6u4lrkfQHm2KUahY1WgO-1" edge="1">
                    <mxGeometry width="50" height="50" relative="1" as="geometry">
                        <mxPoint x="146" y="467" as="sourcePoint"/>
                        <mxPoint x="171" y="490" as="targetPoint"/>
                    </mxGeometry>
                </mxCell>
                <mxCell id="NgB0cGoync-LbmQ5JRYv-43" value="" style="whiteSpace=wrap;html=1;aspect=fixed;" parent="6u4lrkfQHm2KUahY1WgO-1" vertex="1">
                    <mxGeometry x="80" y="520" width="40" height="40" as="geometry"/>
                </mxCell>
                <mxCell id="NgB0cGoync-LbmQ5JRYv-44" value="" style="endArrow=classic;html=1;fontColor=#FFFFFF;" parent="6u4lrkfQHm2KUahY1WgO-1" edge="1">
                    <mxGeometry width="50" height="50" relative="1" as="geometry">
                        <mxPoint x="100" y="490" as="sourcePoint"/>
                        <mxPoint x="100" y="465" as="targetPoint"/>
                    </mxGeometry>
                </mxCell>
                <mxCell id="NgB0cGoync-LbmQ5JRYv-45" value="" style="endArrow=classic;html=1;fontColor=#FFFFFF;dashed=1;" parent="6u4lrkfQHm2KUahY1WgO-1" edge="1">
                    <mxGeometry width="50" height="50" relative="1" as="geometry">
                        <mxPoint x="140" y="450" as="sourcePoint"/>
                        <mxPoint x="140" y="382" as="targetPoint"/>
                    </mxGeometry>
                </mxCell>
                <mxCell id="NgB0cGoync-LbmQ5JRYv-46" value="" style="endArrow=classic;html=1;fontColor=#FFFFFF;" parent="6u4lrkfQHm2KUahY1WgO-1" edge="1">
                    <mxGeometry width="50" height="50" relative="1" as="geometry">
                        <mxPoint x="149" y="451" as="sourcePoint"/>
                        <mxPoint x="215" y="384" as="targetPoint"/>
                        <Array as="points">
                            <mxPoint x="161" y="439"/>
                        </Array>
                    </mxGeometry>
                </mxCell>
                <mxCell id="NgB0cGoync-LbmQ5JRYv-47" value="" style="endArrow=classic;html=1;fontColor=#FFFFFF;dashed=1;" parent="6u4lrkfQHm2KUahY1WgO-1" edge="1">
                    <mxGeometry width="50" height="50" relative="1" as="geometry">
                        <mxPoint x="179" y="416" as="sourcePoint"/>
                        <mxPoint x="179" y="381" as="targetPoint"/>
                    </mxGeometry>
                </mxCell>
                <mxCell id="NgB0cGoync-LbmQ5JRYv-48" value="" style="endArrow=classic;html=1;dashed=1;fontColor=#FFFFFF;" parent="6u4lrkfQHm2KUahY1WgO-1" edge="1">
                    <mxGeometry width="50" height="50" relative="1" as="geometry">
                        <mxPoint x="181" y="420" as="sourcePoint"/>
                        <mxPoint x="259.5" y="419.83" as="targetPoint"/>
                    </mxGeometry>
                </mxCell>
                <mxCell id="NgB0cGoync-LbmQ5JRYv-50" value="" style="endArrow=classic;html=1;dashed=1;fontColor=#FFFFFF;" parent="6u4lrkfQHm2KUahY1WgO-1" edge="1">
                    <mxGeometry width="50" height="50" relative="1" as="geometry">
                        <mxPoint x="150" y="460" as="sourcePoint"/>
                        <mxPoint x="259.25" y="459.8299999999999" as="targetPoint"/>
                    </mxGeometry>
                </mxCell>
            </root>
        </mxGraphModel>
    </diagram>
    <diagram id="Bdy4qM-ESqonUQqi6jir" name="TurningPoint">
        <mxGraphModel dx="562" dy="451" grid="0" gridSize="10" guides="1" tooltips="1" connect="1" arrows="1" fold="1" page="1" pageScale="1" pageWidth="850" pageHeight="1100" math="0" shadow="0">
            <root>
                <mxCell id="SpKTYAu3MzF4kMqkFAnN-0"/>
                <mxCell id="SpKTYAu3MzF4kMqkFAnN-1" parent="SpKTYAu3MzF4kMqkFAnN-0"/>
                <mxCell id="ftD3Nvkwrfu0ZSn-xYu3-0" value="" style="whiteSpace=wrap;html=1;aspect=fixed;fontColor=#FFFFFF;strokeColor=default;fillColor=default;gradientColor=none;" parent="SpKTYAu3MzF4kMqkFAnN-1" vertex="1">
                    <mxGeometry x="80" y="80" width="40" height="40" as="geometry"/>
                </mxCell>
                <mxCell id="ftD3Nvkwrfu0ZSn-xYu3-1" value="" style="whiteSpace=wrap;html=1;aspect=fixed;fontColor=#FFFFFF;strokeColor=default;fillColor=default;gradientColor=none;" parent="SpKTYAu3MzF4kMqkFAnN-1" vertex="1">
                    <mxGeometry x="120" y="80" width="40" height="40" as="geometry"/>
                </mxCell>
                <mxCell id="ftD3Nvkwrfu0ZSn-xYu3-2" value="" style="whiteSpace=wrap;html=1;aspect=fixed;fontColor=#FFFFFF;strokeColor=default;fillColor=default;gradientColor=none;" parent="SpKTYAu3MzF4kMqkFAnN-1" vertex="1">
                    <mxGeometry x="160" y="80" width="40" height="40" as="geometry"/>
                </mxCell>
                <mxCell id="ftD3Nvkwrfu0ZSn-xYu3-3" value="" style="whiteSpace=wrap;html=1;aspect=fixed;fontColor=#FFFFFF;strokeColor=default;fillColor=default;gradientColor=none;" parent="SpKTYAu3MzF4kMqkFAnN-1" vertex="1">
                    <mxGeometry x="80" y="120" width="40" height="40" as="geometry"/>
                </mxCell>
                <mxCell id="ftD3Nvkwrfu0ZSn-xYu3-4" value="n&lt;sub&gt;k&lt;/sub&gt;" style="whiteSpace=wrap;html=1;aspect=fixed;fontColor=#FFFFFF;strokeColor=default;fillColor=default;gradientColor=none;" parent="SpKTYAu3MzF4kMqkFAnN-1" vertex="1">
                    <mxGeometry x="120" y="120" width="40" height="40" as="geometry"/>
                </mxCell>
                <mxCell id="ftD3Nvkwrfu0ZSn-xYu3-5" value="" style="whiteSpace=wrap;html=1;aspect=fixed;fontColor=#FFFFFF;strokeColor=default;fillColor=default;gradientColor=none;" parent="SpKTYAu3MzF4kMqkFAnN-1" vertex="1">
                    <mxGeometry x="160" y="120" width="40" height="40" as="geometry"/>
                </mxCell>
                <mxCell id="ftD3Nvkwrfu0ZSn-xYu3-6" value="n&lt;sub&gt;k-1&lt;/sub&gt;" style="whiteSpace=wrap;html=1;aspect=fixed;fontColor=#FFFFFF;strokeColor=default;fillColor=default;gradientColor=none;" parent="SpKTYAu3MzF4kMqkFAnN-1" vertex="1">
                    <mxGeometry x="80" y="160" width="40" height="40" as="geometry"/>
                </mxCell>
                <mxCell id="ftD3Nvkwrfu0ZSn-xYu3-7" value="" style="whiteSpace=wrap;html=1;aspect=fixed;fontColor=#FFFFFF;strokeColor=default;fillColor=default;gradientColor=none;" parent="SpKTYAu3MzF4kMqkFAnN-1" vertex="1">
                    <mxGeometry x="120" y="160" width="40" height="40" as="geometry"/>
                </mxCell>
                <mxCell id="ftD3Nvkwrfu0ZSn-xYu3-8" value="" style="whiteSpace=wrap;html=1;aspect=fixed;fontColor=#FFFFFF;strokeColor=default;fillColor=default;gradientColor=none;" parent="SpKTYAu3MzF4kMqkFAnN-1" vertex="1">
                    <mxGeometry x="160" y="160" width="40" height="40" as="geometry"/>
                </mxCell>
                <mxCell id="ftD3Nvkwrfu0ZSn-xYu3-9" value="" style="whiteSpace=wrap;html=1;aspect=fixed;fontColor=#FFFFFF;strokeColor=default;fillColor=default;gradientColor=none;" parent="SpKTYAu3MzF4kMqkFAnN-1" vertex="1">
                    <mxGeometry x="240" y="80" width="40" height="40" as="geometry"/>
                </mxCell>
                <mxCell id="ftD3Nvkwrfu0ZSn-xYu3-10" value="" style="whiteSpace=wrap;html=1;aspect=fixed;fontColor=#FFFFFF;strokeColor=default;fillColor=default;gradientColor=none;" parent="SpKTYAu3MzF4kMqkFAnN-1" vertex="1">
                    <mxGeometry x="280" y="80" width="40" height="40" as="geometry"/>
                </mxCell>
                <mxCell id="ftD3Nvkwrfu0ZSn-xYu3-11" value="" style="whiteSpace=wrap;html=1;aspect=fixed;fontColor=#FFFFFF;strokeColor=default;fillColor=default;gradientColor=none;" parent="SpKTYAu3MzF4kMqkFAnN-1" vertex="1">
                    <mxGeometry x="320" y="80" width="40" height="40" as="geometry"/>
                </mxCell>
                <mxCell id="ftD3Nvkwrfu0ZSn-xYu3-12" value="&lt;span&gt;n&lt;/span&gt;&lt;sub&gt;k-1&lt;/sub&gt;" style="whiteSpace=wrap;html=1;aspect=fixed;fontColor=#FFFFFF;strokeColor=default;fillColor=default;gradientColor=none;" parent="SpKTYAu3MzF4kMqkFAnN-1" vertex="1">
                    <mxGeometry x="240" y="120" width="40" height="40" as="geometry"/>
                </mxCell>
                <mxCell id="ftD3Nvkwrfu0ZSn-xYu3-33" value="" style="edgeStyle=none;html=1;fontColor=#FFFFFF;" edge="1" parent="SpKTYAu3MzF4kMqkFAnN-1" source="ftD3Nvkwrfu0ZSn-xYu3-13" target="ftD3Nvkwrfu0ZSn-xYu3-15">
                    <mxGeometry relative="1" as="geometry"/>
                </mxCell>
                <mxCell id="ftD3Nvkwrfu0ZSn-xYu3-13" value="&lt;span&gt;n&lt;/span&gt;&lt;sub&gt;k&lt;/sub&gt;" style="whiteSpace=wrap;html=1;aspect=fixed;fontColor=#FFFFFF;strokeColor=default;fillColor=default;gradientColor=none;" parent="SpKTYAu3MzF4kMqkFAnN-1" vertex="1">
                    <mxGeometry x="280" y="120" width="40" height="40" as="geometry"/>
                </mxCell>
                <mxCell id="ftD3Nvkwrfu0ZSn-xYu3-14" value="" style="whiteSpace=wrap;html=1;aspect=fixed;fontColor=#FFFFFF;strokeColor=default;fillColor=default;gradientColor=none;" parent="SpKTYAu3MzF4kMqkFAnN-1" vertex="1">
                    <mxGeometry x="320" y="120" width="40" height="40" as="geometry"/>
                </mxCell>
                <mxCell id="ftD3Nvkwrfu0ZSn-xYu3-15" value="" style="whiteSpace=wrap;html=1;aspect=fixed;fontColor=#FFFFFF;strokeColor=default;fillColor=default;gradientColor=none;" parent="SpKTYAu3MzF4kMqkFAnN-1" vertex="1">
                    <mxGeometry x="240" y="160" width="40" height="40" as="geometry"/>
                </mxCell>
                <mxCell id="ftD3Nvkwrfu0ZSn-xYu3-16" value="" style="whiteSpace=wrap;html=1;aspect=fixed;fontColor=#FFFFFF;strokeColor=default;fillColor=default;gradientColor=none;" parent="SpKTYAu3MzF4kMqkFAnN-1" vertex="1">
                    <mxGeometry x="280" y="160" width="40" height="40" as="geometry"/>
                </mxCell>
                <mxCell id="ftD3Nvkwrfu0ZSn-xYu3-17" value="" style="whiteSpace=wrap;html=1;aspect=fixed;fontColor=#FFFFFF;strokeColor=default;fillColor=default;gradientColor=none;" parent="SpKTYAu3MzF4kMqkFAnN-1" vertex="1">
                    <mxGeometry x="320" y="160" width="40" height="40" as="geometry"/>
                </mxCell>
                <mxCell id="ftD3Nvkwrfu0ZSn-xYu3-18" value="" style="whiteSpace=wrap;html=1;aspect=fixed;fontColor=#FFFFFF;strokeColor=default;fillColor=default;gradientColor=none;" parent="SpKTYAu3MzF4kMqkFAnN-1" vertex="1">
                    <mxGeometry x="400" y="80" width="40" height="40" as="geometry"/>
                </mxCell>
                <mxCell id="ftD3Nvkwrfu0ZSn-xYu3-19" value="" style="whiteSpace=wrap;html=1;aspect=fixed;fontColor=#FFFFFF;strokeColor=default;fillColor=default;gradientColor=none;" parent="SpKTYAu3MzF4kMqkFAnN-1" vertex="1">
                    <mxGeometry x="440" y="80" width="40" height="40" as="geometry"/>
                </mxCell>
                <mxCell id="ftD3Nvkwrfu0ZSn-xYu3-20" value="" style="whiteSpace=wrap;html=1;aspect=fixed;fontColor=#FFFFFF;strokeColor=default;fillColor=default;gradientColor=none;" parent="SpKTYAu3MzF4kMqkFAnN-1" vertex="1">
                    <mxGeometry x="480" y="80" width="40" height="40" as="geometry"/>
                </mxCell>
                <mxCell id="ftD3Nvkwrfu0ZSn-xYu3-21" value="" style="whiteSpace=wrap;html=1;aspect=fixed;fontColor=#FFFFFF;strokeColor=default;fillColor=default;gradientColor=none;" parent="SpKTYAu3MzF4kMqkFAnN-1" vertex="1">
                    <mxGeometry x="400" y="120" width="40" height="40" as="geometry"/>
                </mxCell>
                <mxCell id="ftD3Nvkwrfu0ZSn-xYu3-22" value="&lt;span&gt;n&lt;/span&gt;&lt;sub&gt;k&lt;/sub&gt;" style="whiteSpace=wrap;html=1;aspect=fixed;fontColor=#FFFFFF;strokeColor=default;fillColor=default;gradientColor=none;" parent="SpKTYAu3MzF4kMqkFAnN-1" vertex="1">
                    <mxGeometry x="440" y="120" width="40" height="40" as="geometry"/>
                </mxCell>
                <mxCell id="ftD3Nvkwrfu0ZSn-xYu3-23" value="" style="whiteSpace=wrap;html=1;aspect=fixed;fontColor=#FFFFFF;strokeColor=default;fillColor=default;gradientColor=none;" parent="SpKTYAu3MzF4kMqkFAnN-1" vertex="1">
                    <mxGeometry x="480" y="120" width="40" height="40" as="geometry"/>
                </mxCell>
                <mxCell id="ftD3Nvkwrfu0ZSn-xYu3-24" value="&lt;span&gt;n&lt;/span&gt;&lt;sub&gt;k-1&lt;/sub&gt;" style="whiteSpace=wrap;html=1;aspect=fixed;fontColor=#FFFFFF;strokeColor=default;fillColor=default;gradientColor=none;" parent="SpKTYAu3MzF4kMqkFAnN-1" vertex="1">
                    <mxGeometry x="400" y="160" width="40" height="40" as="geometry"/>
                </mxCell>
                <mxCell id="ftD3Nvkwrfu0ZSn-xYu3-25" value="" style="whiteSpace=wrap;html=1;aspect=fixed;fontColor=#FFFFFF;strokeColor=default;fillColor=default;gradientColor=none;" parent="SpKTYAu3MzF4kMqkFAnN-1" vertex="1">
                    <mxGeometry x="440" y="160" width="40" height="40" as="geometry"/>
                </mxCell>
                <mxCell id="ftD3Nvkwrfu0ZSn-xYu3-26" value="" style="whiteSpace=wrap;html=1;aspect=fixed;fontColor=#FFFFFF;strokeColor=default;fillColor=default;gradientColor=none;" parent="SpKTYAu3MzF4kMqkFAnN-1" vertex="1">
                    <mxGeometry x="480" y="160" width="40" height="40" as="geometry"/>
                </mxCell>
                <mxCell id="ftD3Nvkwrfu0ZSn-xYu3-27" value="" style="endArrow=classic;html=1;fontColor=#FFFFFF;" parent="SpKTYAu3MzF4kMqkFAnN-1" edge="1">
                    <mxGeometry width="50" height="50" relative="1" as="geometry">
                        <mxPoint x="108" y="170" as="sourcePoint"/>
                        <mxPoint x="133" y="147" as="targetPoint"/>
                    </mxGeometry>
                </mxCell>
                <mxCell id="ftD3Nvkwrfu0ZSn-xYu3-28" value="" style="endArrow=classic;html=1;fontColor=#FFFFFF;" parent="SpKTYAu3MzF4kMqkFAnN-1" edge="1">
                    <mxGeometry width="50" height="50" relative="1" as="geometry">
                        <mxPoint x="428" y="170" as="sourcePoint"/>
                        <mxPoint x="453" y="147" as="targetPoint"/>
                    </mxGeometry>
                </mxCell>
                <mxCell id="ftD3Nvkwrfu0ZSn-xYu3-29" value="" style="endArrow=classic;html=1;fontColor=#FFFFFF;" parent="SpKTYAu3MzF4kMqkFAnN-1" edge="1">
                    <mxGeometry width="50" height="50" relative="1" as="geometry">
                        <mxPoint x="130" y="131" as="sourcePoint"/>
                        <mxPoint x="106" y="108" as="targetPoint"/>
                    </mxGeometry>
                </mxCell>
                <mxCell id="ftD3Nvkwrfu0ZSn-xYu3-30" value="" style="endArrow=classic;html=1;fontColor=#FFFFFF;" edge="1" parent="SpKTYAu3MzF4kMqkFAnN-1">
                    <mxGeometry width="50" height="50" relative="1" as="geometry">
                        <mxPoint x="150" y="152" as="sourcePoint"/>
                        <mxPoint x="174" y="176" as="targetPoint"/>
                    </mxGeometry>
                </mxCell>
                <mxCell id="ftD3Nvkwrfu0ZSn-xYu3-31" value="" style="endArrow=classic;html=1;fontColor=#FFFFFF;" edge="1" parent="SpKTYAu3MzF4kMqkFAnN-1">
                    <mxGeometry width="50" height="50" relative="1" as="geometry">
                        <mxPoint x="310" y="150" as="sourcePoint"/>
                        <mxPoint x="334" y="174" as="targetPoint"/>
                    </mxGeometry>
                </mxCell>
                <mxCell id="ftD3Nvkwrfu0ZSn-xYu3-32" value="" style="endArrow=classic;html=1;fontColor=#FFFFFF;" edge="1" parent="SpKTYAu3MzF4kMqkFAnN-1">
                    <mxGeometry width="50" height="50" relative="1" as="geometry">
                        <mxPoint x="272" y="142" as="sourcePoint"/>
                        <mxPoint x="292" y="142" as="targetPoint"/>
                    </mxGeometry>
                </mxCell>
                <mxCell id="ftD3Nvkwrfu0ZSn-xYu3-35" value="" style="endArrow=classic;html=1;fontColor=#FFFFFF;" edge="1" parent="SpKTYAu3MzF4kMqkFAnN-1">
                    <mxGeometry width="50" height="50" relative="1" as="geometry">
                        <mxPoint x="309" y="130" as="sourcePoint"/>
                        <mxPoint x="334" y="107" as="targetPoint"/>
                    </mxGeometry>
                </mxCell>
                <mxCell id="ftD3Nvkwrfu0ZSn-xYu3-36" value="" style="endArrow=classic;html=1;fontColor=#FFFFFF;" edge="1" parent="SpKTYAu3MzF4kMqkFAnN-1">
                    <mxGeometry width="50" height="50" relative="1" as="geometry">
                        <mxPoint x="472" y="140" as="sourcePoint"/>
                        <mxPoint x="501" y="140" as="targetPoint"/>
                    </mxGeometry>
                </mxCell>
                <mxCell id="ftD3Nvkwrfu0ZSn-xYu3-37" value="" style="endArrow=classic;html=1;fontColor=#FFFFFF;" edge="1" parent="SpKTYAu3MzF4kMqkFAnN-1">
                    <mxGeometry width="50" height="50" relative="1" as="geometry">
                        <mxPoint x="461" y="127" as="sourcePoint"/>
                        <mxPoint x="461" y="102" as="targetPoint"/>
                    </mxGeometry>
                </mxCell>
            </root>
        </mxGraphModel>
    </diagram>
</mxfile>